<svg width="92" height="31" viewBox="0 0 92 31" fill="none" xmlns="http://www.w3.org/2000/svg">
<path d="M31.5297 9.36459C31.5342 9.09352 31.4809 8.8246 31.3734 8.57586C31.2658 8.32712 31.1066 8.10428 30.9063 7.92227C30.706 7.74025 30.4693 7.60325 30.212 7.52044C29.9546 7.43763 29.6826 7.41091 29.4142 7.44208H26.431V11.1209H29.6876C30.1621 11.127 30.6202 10.9465 30.9639 10.6182C31.3075 10.2898 31.5094 9.83957 31.5264 9.36378M26.431 2.23378V5.57443H29.1644C29.4047 5.60746 29.6492 5.58823 29.8814 5.51803C30.1136 5.44782 30.3279 5.3283 30.51 5.16759C30.692 5.00687 30.8374 4.80872 30.9364 4.58661C31.0353 4.3645 31.0854 4.12363 31.0833 3.88036C31.0833 2.86425 30.3405 2.2346 29.1791 2.2346L26.431 2.23378ZM31.7419 6.37684C32.4049 6.55112 32.9891 6.94646 33.3985 7.49791C33.8078 8.04935 34.018 8.7241 33.9945 9.41127C33.9945 11.7039 32.1484 13.1343 29.9235 13.1343H24.0078V0.21875H29.4509C32.0472 0.21875 33.5277 1.70403 33.5277 3.57577C33.5307 4.16406 33.3646 4.74075 33.0493 5.2368C32.7341 5.73285 32.283 6.12724 31.7501 6.37275L31.7419 6.37684Z" fill="#151562"/>
<path d="M46.8333 0.21875V8.10939C46.8333 11.1389 44.9797 13.3136 41.5787 13.3136C38.1622 13.3193 36.3438 11.1414 36.3438 8.11267V0.21875H38.7702V8.10939C38.7307 8.49663 38.7757 8.88786 38.9022 9.25587C39.0286 9.62387 39.2335 9.95983 39.5025 10.2404C39.7715 10.5209 40.0982 10.7393 40.4598 10.8803C40.8215 11.0213 41.2094 11.0816 41.5967 11.057C43.4739 11.057 44.4051 9.9926 44.4051 8.10939V0.21875H46.8333Z" fill="#151562"/>
<path d="M52.3648 6.05752H54.9145C55.3978 6.09903 55.8777 5.94631 56.2487 5.63292C56.6197 5.31953 56.8514 4.87115 56.893 4.38637C56.8999 4.30469 56.9016 4.22263 56.8979 4.14074C56.92 3.66238 56.7519 3.19476 56.4305 2.8407C56.1091 2.48664 55.6607 2.27511 55.1839 2.25262C55.0946 2.24828 55.0051 2.25074 54.9162 2.25998H52.3648V6.05752ZM53.0994 7.93581H52.3648V13.1318H49.9375V0.21875H54.9162C57.4945 0.271152 59.3815 1.79983 59.3815 4.0736C59.3728 5.02991 59.0079 5.94839 58.3585 6.64851C57.7091 7.34864 56.8221 7.77978 55.8719 7.85721L59.9128 13.1286H56.9534L53.0994 7.93581Z" fill="#151562"/>
<path d="M61.6641 11.8519L63.3258 10.2144C64.2657 10.7651 65.3339 11.0569 66.4224 11.0602C68.0629 11.0602 68.7836 10.5018 68.7844 9.60192C68.7844 6.91793 62.2811 8.37374 62.2811 3.78853C62.2811 1.34036 64.1583 0.000827938 66.9545 0.000827938C68.4069 -0.0210177 69.8331 0.389881 71.0525 1.18152L69.4022 2.80435C68.6185 2.44566 67.7678 2.25811 66.9064 2.25413C65.4275 2.25413 64.7435 2.87231 64.7443 3.6739C64.7443 6.13845 71.2647 4.99297 71.2656 9.45617C71.2656 11.8863 69.4308 13.3151 66.1955 13.3151C64.5664 13.3345 62.9755 12.8196 61.6649 11.8487" fill="#151562"/>
<path d="M77.0019 8.36775H80.838L78.9167 3.11688L77.0019 8.36775ZM81.5986 10.4074H76.2437L75.2096 13.1388H72.7031L77.6296 0.226562H80.2152L85.1408 13.1388H82.6335L81.5986 10.4074Z" fill="#151562"/>
<path d="M13.7795 17.1797V30.0911H11.3522V20.8618L6.88282 26.2052L6.31149 25.5059L2.42813 20.8904V30.0903H0V17.1797H2.31713L6.88771 22.6336L11.4265 17.1797H13.7795Z" fill="#151562"/>
<path d="M19.9168 25.3209H23.7528L21.825 20.0692L19.9168 25.3209ZM24.5127 27.3605H19.1586L18.1245 30.0919H15.6172L20.5436 17.1797H23.1309L28.0565 30.0919H25.5492L24.5127 27.3605Z" fill="#151562"/>
<path d="M38.124 28.0507V30.0903H29.9141V17.1797H32.3414V28.0507H38.124Z" fill="#151562"/>
<path d="M43.2934 25.3225H47.1295L45.2082 20.0708L43.2934 25.3225ZM47.8893 27.3621H42.5336L41.4995 30.0936H38.9922L43.917 17.1797H46.5026L51.4283 30.0919H48.9218L47.8893 27.3621Z" fill="#151562"/>
<path d="M57.157 24.7838V30.0903H54.7305V24.8763L50.2031 17.1797H53.0353L55.9188 22.4928L58.8024 17.1797H61.6345L57.157 24.7838Z" fill="#151562"/>
<path d="M76.9586 17.1797H74.5312V30.0911H76.9586V17.1797Z" fill="#151562"/>
<path d="M83.4966 25.3217H87.3326L85.4113 20.07L83.4966 25.3217ZM88.0925 27.3613H82.7359L81.701 30.0919H79.1953L84.1209 17.1797H86.7066L91.6322 30.0919H89.1282L88.0925 27.3613Z" fill="#151562"/>
<path d="M62.0892 28.805L63.7509 27.1675C64.6908 27.7182 65.7591 28.01 66.8475 28.0133C68.488 28.0133 69.2087 27.4549 69.2103 26.555C69.2103 23.871 62.7062 25.3268 62.707 20.7416C62.707 18.2935 64.5843 16.9539 67.3805 16.9539C68.8328 16.9324 70.2589 17.3433 71.4785 18.1346L69.8233 19.7607C69.0395 19.4023 68.1888 19.2148 67.3274 19.2105C65.8485 19.2105 65.1646 19.8287 65.1654 20.6303C65.1654 23.0948 71.6858 21.9493 71.6866 26.4126C71.6866 28.8427 69.8519 30.2715 66.6165 30.2715C64.9874 30.2911 63.3965 29.7762 62.0859 28.805" fill="#151562"/>
</svg>
