<svg width="37" height="36" viewBox="0 0 37 36" fill="none" xmlns="http://www.w3.org/2000/svg">
<path d="M31.8928 5.89062H23.5934L16.4844 13.0194H24.7862L31.8928 5.89062Z" fill="#FF0000"/>
<path d="M10.6229 18.8993L6.55469 22.9802L14.8639 22.9719L18.9247 18.8984L10.6229 18.8993Z" fill="#FF0000"/>
<path d="M23.5934 5.88687H0L5.85863 0H29.461L23.5934 5.88687Z" fill="#FF0000"/>
<path d="M23.5938 5.88356L29.4598 0C30.45 0.58082 31.2238 1.47053 31.6631 2.5335C32.1024 3.59647 32.1832 4.77439 31.8931 5.88769L23.5938 5.88356Z" fill="#95001F"/>
<path d="M36.6449 18.9087H28.3447L11.3047 36.002L19.6139 35.9938L36.6482 18.9062L36.6449 18.9087Z" fill="#0037FE"/>
<path d="M10.6728 13.0156L4.8125 18.9033C5.12696 18.9033 7.40883 18.9033 10.6193 18.9033L16.4845 13.0198L10.6728 13.0156Z" fill="#0037FE"/>
<path d="M18.9219 18.907L24.7871 13.0234H34.2192L28.3523 18.907H18.9219Z" fill="#0037FE"/>
<path d="M16.4824 13.0156L10.6172 18.8992H18.9182L24.7834 13.0156H16.4824Z" fill="#151562"/>
<path d="M28.3516 18.907L34.2168 13.0234C35.2053 13.605 35.9779 14.4941 36.4173 15.5558C36.8567 16.6176 36.9391 17.7941 36.6518 18.907H28.3516Z" fill="#151562"/>
</svg>
