<svg width="179" height="14" viewBox="0 0 179 14" fill="none" xmlns="http://www.w3.org/2000/svg">
<path d="M11.4618 10.3118C11.4827 10.8482 11.3616 11.3805 11.1111 11.853C10.8606 12.3255 10.49 12.7208 10.038 12.9977C9.56132 13.2949 9.03826 13.5072 8.49136 13.6255C7.87761 13.7633 7.25069 13.8311 6.62218 13.8278H0V0.117438H7.81826C8.26062 0.111316 8.6975 0.217472 9.08941 0.426308C9.46076 0.625553 9.78962 0.897699 10.057 1.22702C10.3255 1.56063 10.5343 1.9396 10.674 2.34668C10.8185 2.75886 10.8924 3.19322 10.8926 3.63084C10.8921 4.27876 10.7252 4.9153 10.4084 5.47735C10.0803 6.06852 9.57016 6.53337 8.9566 6.80012C9.67618 6.99735 10.3167 7.41953 10.7878 8.00706C11.2663 8.67454 11.5043 9.48932 11.4618 10.3144M3.70043 3.32281V5.42699H6.22376C6.47049 5.42898 6.71205 5.35495 6.91666 5.21464C7.03387 5.11051 7.12381 4.97838 7.17838 4.83011C7.23295 4.68184 7.25045 4.5221 7.22929 4.36525C7.24326 4.22012 7.22681 4.07364 7.18102 3.93547C7.13524 3.79729 7.06116 3.67058 6.96368 3.56369C6.79278 3.40515 6.56883 3.31898 6.33759 3.32281H3.70043ZM7.70442 9.53966C7.7144 9.23699 7.62049 8.94022 7.43881 8.70034C7.35897 8.59363 7.2555 8.5076 7.13682 8.44926C7.01813 8.39092 6.88759 8.36192 6.75581 8.36461H3.70373V10.6618H6.62218C6.9055 10.6695 7.18083 10.5658 7.39097 10.3723C7.49872 10.265 7.58243 10.1352 7.63639 9.99197C7.69034 9.84871 7.71327 9.69529 7.7036 9.54218" fill="#0038FF"/>
<path d="M18.7136 10.602C19.0999 10.6136 19.4816 10.5132 19.814 10.3124C20.1171 10.1212 20.3714 9.85976 20.5564 9.54949C20.7546 9.21214 20.8957 8.8433 20.9738 8.45837C21.0635 8.03333 21.108 7.5997 21.1066 7.16497V0.117188H24.807V7.16749C24.8136 8.07183 24.6921 8.97242 24.4465 9.84157C24.227 10.6316 23.8455 11.3653 23.3272 11.9944C22.8055 12.6105 22.1535 13.0983 21.42 13.4213C20.5648 13.7868 19.6434 13.9644 18.716 13.9425C17.7671 13.9684 16.8243 13.7804 15.9552 13.3919C15.2225 13.0522 14.5756 12.547 14.0637 11.9147C13.5619 11.2802 13.1937 10.5474 12.9823 9.76183C12.7508 8.91648 12.6359 8.04251 12.6408 7.16497V0.117188H16.3412V7.16749C16.3398 7.60555 16.3843 8.04251 16.474 8.47096C16.5509 8.85914 16.692 9.23122 16.8914 9.57131C17.0722 9.87887 17.3229 10.1379 17.6223 10.3267C17.9531 10.5221 18.3312 10.6189 18.7136 10.6062" fill="#0038FF"/>
<path d="M26.8125 13.8302V0.11737H32.9991C33.6296 0.111367 34.2529 0.253548 34.8205 0.532834C35.3611 0.797598 35.8473 1.16445 36.2533 1.61388C36.6536 2.06095 36.9718 2.57749 37.1929 3.13893C37.4156 3.68704 37.5316 4.27397 37.5344 4.86709C37.5399 5.64128 37.3643 6.40569 37.0221 7.09717C36.6928 7.77165 36.2038 8.35225 35.5992 8.78673L38.4458 13.8227H34.2711L31.8987 9.61346H30.5138V13.8302H26.8125ZM30.5129 6.33842H32.8474C32.9757 6.32948 33.1002 6.28986 33.2107 6.22278C33.3212 6.15569 33.4146 6.06304 33.4833 5.95234C33.697 5.63536 33.8006 5.25494 33.7778 4.87129C33.8045 4.47663 33.6824 4.08645 33.4363 3.78017C33.3546 3.67248 33.2516 3.58339 33.1339 3.51863C33.0163 3.45387 32.8866 3.41488 32.7533 3.40415H30.5138L30.5129 6.33842Z" fill="#0038FF"/>
<path d="M47.4985 4.5954C47.1197 4.36423 46.7268 4.1579 46.3222 3.97766C45.9478 3.81069 45.5645 3.66553 45.1739 3.54289C44.7721 3.41145 44.3529 3.34323 43.9308 3.34061C43.66 3.32834 43.3901 3.38126 43.1431 3.49505C43.0489 3.54253 42.9707 3.61743 42.9184 3.71024C42.8661 3.80304 42.8421 3.90956 42.8494 4.01627C42.8466 4.09822 42.8602 4.1799 42.8896 4.25626C42.919 4.33263 42.9634 4.40206 43.0202 4.46027C43.1647 4.59608 43.3325 4.70388 43.5151 4.77837C43.7711 4.88993 44.0343 4.98359 44.3029 5.0587C44.6125 5.14879 44.9636 5.25818 45.3562 5.38688C45.9291 5.56185 46.4901 5.77465 47.0357 6.02392C47.4996 6.23253 47.9311 6.50877 48.3168 6.84394C48.6705 7.15931 48.9494 7.55216 49.1326 7.99297C49.3352 8.51509 49.432 9.07352 49.4171 9.63469C49.4403 10.3536 49.2869 11.0669 48.9709 11.7103C48.6927 12.2491 48.2888 12.7103 47.7946 13.0532C47.2925 13.3947 46.7334 13.6401 46.1448 13.7776C45.5387 13.9248 44.9178 13.9995 44.2946 14C43.7863 13.9989 43.2788 13.9602 42.776 13.8842C42.2544 13.8067 41.7379 13.6971 41.2293 13.556C40.7269 13.4174 40.2328 13.2492 39.7495 13.0524C39.2935 12.8688 38.8522 12.6494 38.4297 12.3961L40.0242 9.095C40.4679 9.37955 40.9307 9.63197 41.4092 9.85039C41.8545 10.0586 42.3144 10.2329 42.7851 10.3716C43.2938 10.5255 43.8217 10.6035 44.3524 10.6033C44.6437 10.6273 44.936 10.5692 45.197 10.4354C45.2701 10.39 45.3303 10.326 45.3718 10.2498C45.4133 10.1736 45.4347 10.0877 45.4338 10.0006C45.4339 9.90557 45.4126 9.81175 45.3716 9.72635C45.3305 9.64095 45.2708 9.56624 45.197 9.50795C45.0004 9.35181 44.7788 9.23116 44.5421 9.15124C44.2638 9.04828 43.9446 8.94532 43.5844 8.84237C43.2242 8.73941 42.8414 8.61715 42.4361 8.47558C41.906 8.29819 41.3916 8.07524 40.8986 7.80916C40.504 7.59864 40.1452 7.32488 39.8361 6.99838C39.5613 6.702 39.351 6.34992 39.2191 5.96517C39.0798 5.53567 39.0126 5.08538 39.0203 4.63317C39.0062 3.94094 39.1458 3.2544 39.4286 2.62467C39.6856 2.06303 40.0637 1.56757 40.5348 1.17516C41.0112 0.78529 41.5543 0.488231 42.1367 0.298911C42.7534 0.0970067 43.3977 -0.0038518 44.0455 0.000112468C44.5297 -0.000814577 45.0127 0.0475474 45.4874 0.144476C45.9466 0.238848 46.3997 0.361332 46.8443 0.511259C47.2601 0.65113 47.6686 0.812204 48.0685 0.993869C48.4485 1.16789 48.79 1.33212 49.093 1.48655L47.4985 4.5954Z" fill="#0038FF"/>
<path d="M53.9683 0.117188H57.3462L62.0142 13.83H58.2568L57.441 11.1442H53.8544L53.0576 13.83H49.2812L53.9683 0.117188ZM56.8553 8.63211L55.6601 4.3843L54.4079 8.63211H56.8553Z" fill="#0038FF"/>
<path d="M77.8389 11.9724C77.3324 12.5767 76.7044 13.0635 75.9974 13.3998C75.2903 13.7362 74.5205 13.9143 73.74 13.9222C72.8731 13.9299 72.0171 13.7246 71.2448 13.3238C70.4917 12.9333 69.8196 12.399 69.265 11.75C68.7017 11.0899 68.2551 10.3354 67.9452 9.51995C67.6248 8.69621 67.4606 7.81822 67.461 6.93232C67.4536 5.15223 68.0881 3.4312 69.2444 2.09531C69.8007 1.4585 70.4781 0.943112 71.2357 0.580336C72.0188 0.204496 72.8751 0.0131423 73.7409 0.0205086C74.8696 -0.0261434 75.9874 0.262267 76.9579 0.850598C77.7795 1.38214 78.4449 2.12937 78.884 3.01353L77.5749 3.93678C77.2219 3.19548 76.6607 2.5774 75.9623 2.16078C75.2724 1.76947 74.4935 1.56974 73.7037 1.58165C73.0562 1.57304 72.4168 1.72912 71.8436 2.03572C71.2944 2.33228 70.8103 2.73951 70.4207 3.23259C70.0203 3.7462 69.7131 4.32827 69.5133 4.95152C69.2984 5.60055 69.1895 6.28102 69.1908 6.9659C69.1863 7.67429 69.3084 8.37762 69.5513 9.04154C69.7793 9.66904 70.1144 10.2507 70.5411 10.7596C70.9501 11.2486 71.4539 11.6464 72.021 11.928C72.6005 12.2136 73.2372 12.359 73.8811 12.3527C74.6606 12.3242 75.4233 12.1145 76.1108 11.7395C76.7983 11.3646 77.3923 10.8345 77.8471 10.1897V8.30377H74.9444V6.99108H79.2899V13.8257H77.848L77.8389 11.9724Z" fill="#0038FF"/>
<path d="M87.0798 13.9171C86.1832 13.9299 85.2961 13.7287 84.4897 13.3295C83.7267 12.9491 83.0461 12.4175 82.4877 11.7659C81.9271 11.1092 81.4898 10.3533 81.1976 9.53581C80.8967 8.7141 80.7425 7.84434 80.7422 6.96748C80.7395 6.06912 80.9038 5.17833 81.2264 4.34208C81.5369 3.52562 81.9902 2.77318 82.5644 2.12124C83.1321 1.47907 83.8189 0.95737 84.5854 0.586119C85.3765 0.2034 86.2427 0.00853047 87.1186 0.0162198C88.0142 0.00298129 88.8995 0.21092 89.6988 0.62221C90.458 1.01806 91.1347 1.55957 91.6918 2.21692C92.8099 3.54632 93.4284 5.23619 93.4372 6.98595C93.44 7.8846 93.2757 8.77568 92.953 9.61219C92.645 10.4246 92.1951 11.1736 91.6249 11.823C91.0599 12.4615 90.3761 12.9798 89.6131 13.348C88.822 13.7309 87.9558 13.9258 87.0798 13.9179M82.4687 6.96664C82.467 7.65217 82.5785 8.33311 82.7987 8.98102C83.0081 9.60944 83.3263 10.1947 83.7382 10.7092C84.1376 11.2085 84.6352 11.6174 85.1991 11.9094C85.7873 12.2102 86.438 12.3625 87.0963 12.3534C87.7704 12.3649 88.4362 12.202 89.0315 11.88C89.5923 11.572 90.0862 11.1517 90.4833 10.6446C90.8847 10.1282 91.192 9.54292 91.3907 8.91639C91.5968 8.28741 91.7024 7.62883 91.7033 6.9658C91.705 6.28028 91.5934 5.59935 91.3733 4.95143C91.1642 4.32401 90.8426 3.74147 90.4247 3.23334C90.0195 2.74293 89.5227 2.33925 88.963 2.0457C88.3704 1.75028 87.7186 1.5983 87.0586 1.60165C86.3987 1.605 85.7484 1.76358 85.1587 2.065C84.5987 2.36609 84.1048 2.77986 83.7069 3.28118C83.3024 3.79418 82.9907 4.37619 82.7863 5.00011C82.5728 5.63386 82.4638 6.2992 82.4638 6.96916" fill="#0038FF"/>
<path d="M95.4688 13.83V0.117188H97.1763V12.2815H104.691V13.83H95.4688Z" fill="#0038FF"/>
<path d="M106.039 13.8315V0.118662H110.707C111.679 0.0986446 112.645 0.282645 113.544 0.659185C114.322 0.990775 115.019 1.49152 115.587 2.12632C116.138 2.75691 116.554 3.49641 116.811 4.29848C117.087 5.15526 117.225 6.05176 117.219 6.95326C117.232 7.91603 117.078 8.87358 116.763 9.78177C116.482 10.5887 116.036 11.3259 115.454 11.9447C114.872 12.5521 114.169 13.026 113.392 13.3346C112.536 13.6727 111.625 13.84 110.707 13.8273L106.039 13.8315ZM115.489 6.95746C115.496 6.23387 115.39 5.51371 115.175 4.8239C114.985 4.20653 114.668 3.63725 114.246 3.15365C113.826 2.68382 113.311 2.31165 112.737 2.06253C112.094 1.78905 111.403 1.65416 110.706 1.66637H107.751V12.283H110.71C111.418 12.2965 112.121 12.1584 112.773 11.8776C113.349 11.6253 113.862 11.2423 114.271 10.7579C114.68 10.2608 114.988 9.68672 115.179 9.06835C115.393 8.38495 115.499 7.6713 115.492 6.9541" fill="#0038FF"/>
<path d="M124.422 13.8315V0.118665H129.091C130.063 0.0986239 131.028 0.282625 131.928 0.659188C132.705 0.991015 133.402 1.49175 133.969 2.12632C134.52 2.75676 134.937 3.4963 135.193 4.29849C135.469 5.15526 135.607 6.05177 135.601 6.95326C135.614 7.91604 135.46 8.87362 135.145 9.78178C134.864 10.5887 134.418 11.3258 133.836 11.9447C133.254 12.5518 132.551 13.0256 131.774 13.3346C130.918 13.6728 130.007 13.8401 129.089 13.8273L124.422 13.8315ZM133.873 6.95746C133.88 6.23386 133.774 5.51369 133.559 4.8239C133.369 4.20656 133.052 3.6373 132.629 3.15365C132.209 2.6839 131.695 2.31175 131.121 2.06253C130.478 1.78912 129.787 1.65423 129.091 1.66637H126.133V12.283H129.093C129.801 12.2966 130.504 12.1585 131.155 11.8776C131.733 11.6254 132.245 11.2424 132.655 10.7579C133.064 10.2608 133.372 9.68668 133.562 9.06835C133.776 8.38498 133.882 7.67131 133.876 6.9541" fill="#0038FF"/>
<path d="M139.38 0.117188H137.672V13.8258H139.38V0.117188Z" fill="#0038FF"/>
<path d="M143.911 3.36117V13.83H142.203V0.117188H143.532L151.882 10.795V0.136492H153.59V13.83H152.148L143.911 3.36117Z" fill="#0038FF"/>
<path d="M160.444 0.117188H161.886L167.389 13.83H165.568L163.974 9.81387H158.319L156.743 13.83H154.922L160.444 0.117188ZM163.595 8.45837L161.165 2.12485L158.66 8.45837H163.595Z" fill="#0038FF"/>
<path d="M168.711 13.8302V0.117401H174.48C175.049 0.111203 175.611 0.239949 176.122 0.493417C176.613 0.738746 177.052 1.08111 177.413 1.5006C177.772 1.91712 178.058 2.39393 178.257 2.90982C178.457 3.417 178.56 3.95819 178.561 4.50454C178.562 4.97224 178.495 5.43754 178.362 5.88522C178.236 6.31557 178.043 6.72291 177.792 7.09217C177.548 7.44878 177.247 7.76092 176.9 8.01542C176.549 8.27479 176.154 8.46496 175.734 8.57609L178.996 13.8302H177.06L173.987 8.90678H170.419V13.8302H168.711ZM170.418 7.36159H174.498C174.832 7.3665 175.161 7.28688 175.456 7.12994C175.74 6.97551 175.99 6.76155 176.187 6.50212C176.395 6.22614 176.556 5.91586 176.661 5.58474C176.775 5.23617 176.833 4.87107 176.832 4.5037C176.834 4.13039 176.766 3.76007 176.632 3.41258C176.506 3.08236 176.326 2.77577 176.101 2.50527C175.886 2.24721 175.621 2.03693 175.323 1.88753C175.032 1.73921 174.71 1.66137 174.385 1.66007H170.418V7.36159Z" fill="#0038FF"/>
</svg>
